HIERARCHY
ROOT joint_Root
{
	OFFSET 0.0 0.0 0.0
	CHANNELS 6 Xposition Yposition Zposition Zrotation Xrotation Yrotation 
	JOINT Hips
	{
		OFFSET -0.726466 93.3139 -2.00062
		CHANNELS 6 Xposition Yposition Zposition Zrotation Xrotation Yrotation 
		JOINT Spine
		{
			OFFSET 15.7357 0.0 0.0
			CHANNELS 6 Xposition Yposition Zposition Zrotation Xrotation Yrotation 
			JOINT Chest
			{
				OFFSET 8.98455 -0.406207 0.0
				CHANNELS 6 Xposition Yposition Zposition Zrotation Xrotation Yrotation 
				JOINT Neck
				{
					OFFSET 16.3773 0.0 0.0
					CHANNELS 6 Xposition Yposition Zposition Zrotation Xrotation Yrotation 
					JOINT Head
					{
						OFFSET 6.45672 0.0 0.0
						CHANNELS 6 Xposition Yposition Zposition Zrotation Xrotation Yrotation 
						End Site
						{
							OFFSET 0.0 0.0 0.0
						}
					}
				}
				JOINT Shoulder_L
				{
					OFFSET 12.9942 -0.242716 4.98039
					CHANNELS 6 Xposition Yposition Zposition Zrotation Xrotation Yrotation 
					JOINT UpperArm_L
					{
						OFFSET 5.34809 0.0 0.0
						CHANNELS 6 Xposition Yposition Zposition Zrotation Xrotation Yrotation 
						JOINT LowerArm_L
						{
							OFFSET 24.3286 1.87007e-05 0.0
							CHANNELS 6 Xposition Yposition Zposition Zrotation Xrotation Yrotation 
							JOINT Hand_L
							{
								OFFSET 22.2916 0.0 0.0
								CHANNELS 6 Xposition Yposition Zposition Zrotation Xrotation Yrotation 
								End Site
								{
									OFFSET 0.0 0.0 0.0
								}
							}
						}
					}
				}
				JOINT Shoulder_R
				{
					OFFSET 12.9945 -0.242716 -4.98039
					CHANNELS 6 Xposition Yposition Zposition Zrotation Xrotation Yrotation 
					JOINT UpperArm_R
					{
						OFFSET -5.34813 0.0 0.0
						CHANNELS 6 Xposition Yposition Zposition Zrotation Xrotation Yrotation 
						JOINT LowerArm_R
						{
							OFFSET -24.3289 0.000322201 0.0
							CHANNELS 6 Xposition Yposition Zposition Zrotation Xrotation Yrotation 
							JOINT Hand_R
							{
								OFFSET -22.2915 -0.000108084 0.0
								CHANNELS 6 Xposition Yposition Zposition Zrotation Xrotation Yrotation 
								End Site
								{
									OFFSET 0.0 0.0 0.0
								}
							}
						}
					}
				}
			}
		}
		JOINT UpperLeg_L
		{
			OFFSET -2.19248 -6.46944 0.0
			CHANNELS 6 Xposition Yposition Zposition Zrotation Xrotation Yrotation 
			JOINT LowerLeg_L
			{
				OFFSET 39.0811 0.0 -1.23785e-05
				CHANNELS 6 Xposition Yposition Zposition Zrotation Xrotation Yrotation 
				JOINT Foot_L
				{
					OFFSET 40.9854 0.0 -1.26872e-05
					CHANNELS 6 Xposition Yposition Zposition Zrotation Xrotation Yrotation 
					JOINT Toes_L
					{
						OFFSET 11.7543 0.0 0.0
						CHANNELS 6 Xposition Yposition Zposition Zrotation Xrotation Yrotation 
						End Site
						{
							OFFSET 0.0 0.0 0.0
						}
					}
				}
			}
		}
		JOINT UpperLeg_R
		{
			OFFSET -2.19251 6.46944 0.0
			CHANNELS 6 Xposition Yposition Zposition Zrotation Xrotation Yrotation 
			JOINT LowerLeg_R
			{
				OFFSET -39.0811 -0.00228153 -0.0401928
				CHANNELS 6 Xposition Yposition Zposition Zrotation Xrotation Yrotation 
				JOINT Foot_R
				{
					OFFSET -40.9854 0.0 0.0
					CHANNELS 6 Xposition Yposition Zposition Zrotation Xrotation Yrotation 
					JOINT Toes_R
					{
						OFFSET -11.7543 0.0 0.0
						CHANNELS 6 Xposition Yposition Zposition Zrotation Xrotation Yrotation 
						End Site
						{
							OFFSET 0.0 0.0 0.0
						}
					}
				}
			}
		}
	}
}
MOTION
Frames:	9
Frame Time:	0.0333333
0.000000 0.000000 0.000000 0.000000 0.000000 -0.000000 0.496562 82.508600 440.845000 -81.890300 0.324269 172.933000 15.735700 0.000005 -0.000001 84.159200 78.966300 -79.841600 8.984550 -0.406207 -0.000000 14.283200 -1.973430 8.887280 16.377300 -0.000001 -0.000001 1.709540 1.096930 -1.197380 6.456720 -0.000001 -0.000000 -5.830050 5.335430 1.494810 12.994200 -0.242716 4.980390 -88.422500 -4.477430 -70.566900 5.348090 -0.000007 -0.000001 -69.137800 24.498500 -5.754300 24.328600 0.000019 0.000005 -7.587510 -4.270770 -60.792300 22.291600 -0.000001 0.000005 6.311220 5.659600 -16.015100 12.994500 -0.242716 -4.980390 87.392100 6.035220 -66.576100 -5.348130 -0.000001 -0.000004 -47.142900 26.277900 -14.087500 -24.328900 0.000322 -0.000009 -2.803610 -1.474190 -62.291500 -22.291500 -0.000108 -0.000004 5.250520 5.582120 -10.315500 -2.192480 -6.469440 -0.000000 -167.660000 -4.196180 -12.755100 39.081100 -0.000007 -0.000012 0.029419 0.000940 91.812800 40.985400 -0.000006 -0.000013 2.197310 -0.121095 -40.827700 11.754300 -0.000000 0.000003 -0.008887 -0.095131 -20.451600 -2.192510 6.469440 -0.000001 -165.334000 9.681280 144.817000 -39.081100 -0.002282 -0.040193 -0.271354 0.167478 58.617900 -40.985400 0.000008 0.000006 5.331410 -8.834220 -81.498200 -11.754300 -0.000006 -0.000006 -0.006156 -0.072242 -19.513400
0.000000 0.000000 0.000000 0.000000 0.000000 -0.000000 0.484619 81.206600 435.069000 -82.731900 2.200030 173.432000 15.735700 0.000005 -0.000001 89.591900 79.229700 -85.694200 8.984550 -0.406207 -0.000000 13.784300 0.052922 7.791040 16.377300 -0.000001 -0.000001 2.140350 0.897725 -1.019800 6.456720 -0.000001 -0.000000 -5.032180 3.823600 1.126090 12.994200 -0.242716 4.980390 -88.180600 -4.925970 -69.700300 5.348090 -0.000007 -0.000001 -71.485900 28.304600 -1.460540 24.328600 0.000019 0.000005 -5.040740 -4.452480 -48.609300 22.291600 -0.000001 0.000005 3.858400 5.661710 -16.234600 12.994500 -0.242716 -4.980390 87.584200 5.846120 -67.502600 -5.348130 -0.000001 -0.000004 -44.520400 24.360600 -23.888400 -24.328900 0.000322 -0.000009 -3.723260 -1.599950 -66.735200 -22.291500 -0.000108 -0.000004 5.134380 5.590360 -10.782100 -2.192480 -6.469440 -0.000000 -170.091000 -5.115400 -24.849100 39.081100 -0.000007 -0.000012 -0.121697 -0.034390 105.785000 40.985400 -0.000006 -0.000013 5.886130 -0.571939 -42.458400 11.754300 -0.000000 0.000003 -0.009505 -0.099912 -20.647000 -2.192510 6.469440 -0.000001 -167.191000 10.465200 148.892000 -39.081100 -0.002282 -0.040193 -0.050913 0.029346 61.524600 -40.985400 0.000008 0.000006 5.884650 -7.719650 -87.634700 -11.754300 -0.000006 -0.000006 -0.004392 -0.055453 -18.829000
0.000000 0.000000 0.000000 0.000000 0.000000 -0.000000 0.172945 81.023300 428.922000 -83.895800 4.574030 173.514000 15.735700 0.000005 -0.000001 95.842100 79.524800 -92.716400 8.984550 -0.406207 -0.000000 13.028300 2.254240 5.994760 16.377300 -0.000001 -0.000001 2.318970 0.507639 -0.383913 6.456720 -0.000001 -0.000000 -4.073830 1.982460 0.601872 12.994200 -0.242716 4.980390 -88.193400 -4.669860 -68.820800 5.348090 -0.000007 -0.000001 -71.640000 29.137900 5.342400 24.328600 0.000019 0.000005 0.213808 0.214813 -44.733300 22.291600 -0.000001 0.000005 -1.124360 5.650180 -15.024100 12.994500 -0.242716 -4.980390 88.230400 4.523290 -68.609100 -5.348130 -0.000001 -0.000004 -42.417900 22.580900 -32.291900 -24.328900 0.000322 -0.000009 -7.028070 -2.123430 -73.257700 -22.291500 -0.000108 -0.000004 6.144900 5.585050 -10.486600 -2.192480 -6.469440 -0.000000 -173.472000 -6.701340 -35.569100 39.081100 -0.000007 -0.000012 -0.225284 -0.091717 112.155000 40.985400 -0.000006 -0.000013 9.012320 -3.786640 -46.731800 11.754300 -0.000000 0.000003 -0.008513 -0.092177 -20.330900 -2.192510 6.469440 -0.000001 -170.249000 11.195800 154.852000 -39.081100 -0.002282 -0.040193 0.191662 -0.107676 60.259100 -40.985400 0.000008 0.000006 6.450980 -5.500440 -91.453000 -11.754300 -0.000006 -0.000006 -0.003415 -0.045212 -18.412000
0.000000 0.000000 0.000000 0.000000 0.000000 -0.000000 -0.496027 82.348300 421.991000 -86.853800 7.099040 173.150000 15.735700 0.000005 -0.000001 101.653000 79.748000 -100.070000 8.984550 -0.406207 -0.000000 12.282700 4.165860 2.718060 16.377300 -0.000001 -0.000001 2.391440 -0.119135 0.109196 6.456720 -0.000001 -0.000000 -3.760520 -0.488887 1.043460 12.994200 -0.242716 4.980390 -88.358500 -3.906690 -67.187800 5.348090 -0.000007 -0.000001 -69.240000 31.481500 11.196800 24.328600 0.000019 0.000005 0.310174 0.292979 -46.746900 22.291600 -0.000001 0.000005 -0.830255 5.657150 -15.726700 12.994500 -0.242716 -4.980390 88.904100 2.910920 -69.360400 -5.348130 -0.000001 -0.000004 -41.145500 20.431600 -38.386700 -24.328900 0.000322 -0.000009 -8.333780 -1.649890 -78.874000 -22.291500 -0.000108 -0.000004 6.476140 5.576710 -10.036600 -2.192480 -6.469440 -0.000000 -178.822000 -7.348990 -43.179500 39.081100 -0.000007 -0.000012 -0.219704 -0.078131 109.579000 40.985400 -0.000006 -0.000013 9.368460 -6.139780 -52.296200 11.754300 -0.000000 0.000003 -0.007091 -0.080455 -19.852200 -2.192510 6.469440 -0.000001 -175.938000 11.028900 162.612000 -39.081100 -0.002282 -0.040193 0.154324 -0.110006 53.942800 -40.985400 0.000008 0.000006 5.839890 -2.824410 -91.487200 -11.754300 -0.000006 -0.000006 -0.005105 -0.062479 -19.115300
0.000000 0.000000 0.000000 0.000000 0.000000 -0.000000 -1.249870 85.052300 414.676000 -90.330900 8.438180 172.080000 15.735700 0.000005 -0.000001 106.905000 80.295400 -107.010000 8.984550 -0.406207 -0.000000 10.847400 5.600280 -0.740848 16.377300 -0.000001 -0.000001 3.311020 -0.840462 0.355608 6.456720 -0.000001 -0.000000 -3.072870 -3.402730 2.402670 12.994200 -0.242716 4.980390 -87.897400 -4.656560 -65.667800 5.348090 -0.000007 -0.000001 -68.582200 30.450600 15.255400 24.328600 0.000019 0.000005 -1.721310 -1.515970 -48.636100 22.291600 -0.000001 0.000005 -0.985110 5.657620 -15.790400 12.994500 -0.242716 -4.980390 89.478200 1.400470 -69.562400 -5.348130 -0.000001 -0.000004 -41.088100 19.211500 -40.458300 -24.328900 0.000322 -0.000009 -9.933440 -1.286780 -82.687300 -22.291500 -0.000108 -0.000004 5.726110 5.570060 -9.688690 -2.192480 -6.469440 -0.000000 176.306000 -5.741890 -47.833800 39.081100 -0.000007 -0.000012 -0.135457 -0.021648 99.083900 40.985400 -0.000006 -0.000013 7.514560 -6.320500 -56.920900 11.754300 -0.000000 0.000003 -0.003716 -0.048456 -18.547700 -2.192510 6.469440 -0.000001 178.076000 11.094100 170.200000 -39.081100 -0.002282 -0.040193 0.065750 -0.064941 43.894700 -40.985400 0.000008 0.000006 5.628380 -0.029752 -82.732800 -11.754300 -0.000006 -0.000006 -2.118570 -2.141860 -25.777500
0.000000 0.000000 0.000000 0.000000 0.000000 -0.000000 -1.893280 88.525900 407.353000 -92.508700 9.295120 171.108000 15.735700 0.000005 -0.000001 111.227000 80.657000 -112.585000 8.984550 -0.406207 -0.000000 9.782800 6.701280 -3.288630 16.377300 -0.000001 -0.000001 4.464860 -1.235900 0.356265 6.456720 -0.000001 -0.000000 -2.325050 -5.261380 3.494500 12.994200 -0.242716 4.980390 -87.249600 -5.738050 -64.336900 5.348090 -0.000007 -0.000001 -68.557300 27.545800 17.642600 24.328600 0.000019 0.000005 -2.082070 -1.694130 -50.874700 22.291600 -0.000001 0.000005 -0.936118 5.655080 -15.520800 12.994500 -0.242716 -4.980390 89.843600 0.419718 -69.571700 -5.348130 -0.000001 -0.000004 -41.558500 19.440900 -41.106100 -24.328900 0.000322 -0.000009 -10.556900 -1.226480 -83.446100 -22.291500 -0.000108 -0.000004 5.009940 5.565400 -9.454630 -2.192480 -6.469440 -0.000000 173.826000 -4.106180 -48.204000 39.081100 -0.000007 -0.000012 -0.030261 0.004175 82.159400 40.985400 -0.000006 -0.000013 6.323300 -6.351570 -61.354600 11.754300 -0.000000 0.000003 -0.006513 -0.075432 -19.647200 -2.192510 6.469440 -0.000001 174.018000 10.782100 176.000000 -39.081100 -0.002282 -0.040193 0.035520 -0.045854 35.102400 -40.985400 0.000008 0.000006 5.562840 1.825760 -67.047600 -11.754300 -0.000006 -0.000006 -0.109427 -0.467366 -36.127900
0.000000 0.000000 0.000000 0.000000 0.000000 -0.000000 -2.373660 91.865300 400.168000 -92.924500 10.334100 170.277000 15.735700 0.000005 -0.000001 114.615000 80.725200 -116.684000 8.984550 -0.406207 -0.000000 9.302130 7.656490 -4.762870 16.377300 -0.000001 -0.000001 5.473490 -1.023550 0.089292 6.456720 -0.000001 -0.000000 -2.270040 -6.049350 4.422700 12.994200 -0.242716 4.980390 -86.665700 -6.633700 -63.237700 5.348090 -0.000007 -0.000001 -69.043500 24.893500 18.839800 24.328600 0.000019 0.000005 -2.479140 -1.840240 -53.436200 22.291600 -0.000001 0.000005 0.273549 5.655520 -15.573800 12.994500 -0.242716 -4.980390 90.099500 -0.272885 -69.947600 -5.348130 -0.000001 -0.000004 -42.704100 20.576400 -41.126300 -24.328900 0.000322 -0.000009 -9.674230 -1.410730 -81.778200 -22.291500 -0.000108 -0.000004 5.105730 5.560410 -9.206080 -2.192480 -6.469440 -0.000000 173.662000 -4.279430 -44.628800 39.081100 -0.000007 -0.000012 0.025220 -0.014319 60.406100 40.985400 -0.000006 -0.000013 5.085440 -3.157440 -65.180400 11.754300 -0.000000 0.000003 -0.005633 -0.067470 -19.322500 -2.192510 6.469440 -0.000001 171.378000 12.937100 179.645000 -39.081100 -0.002282 -0.040193 0.056080 -0.096652 28.636100 -40.985400 0.000008 0.000006 5.832390 6.363670 -48.532300 -11.754300 -0.000006 -0.000006 -0.202793 -0.649722 -44.441100
0.000000 0.000000 0.000000 0.000000 0.000000 -0.000000 -2.458530 93.757300 392.545000 -90.909400 10.530700 171.122000 15.735700 0.000005 -0.000001 116.575000 80.219200 -118.367000 8.984550 -0.406207 -0.000000 9.951890 8.663590 -4.343060 16.377300 -0.000001 -0.000001 6.875530 -0.948746 -0.243777 6.456720 -0.000001 -0.000000 -2.975190 -6.389250 5.214570 12.994200 -0.242716 4.980390 -86.155000 -7.494690 -62.739700 5.348090 -0.000007 -0.000001 -69.885900 22.110000 18.961300 24.328600 0.000019 0.000005 -2.075980 -1.418310 -55.679700 22.291600 -0.000001 0.000005 0.952751 5.649650 -14.981800 12.994500 -0.242716 -4.980390 90.356600 -1.009130 -70.531600 -5.348130 -0.000001 -0.000004 -44.900600 21.888100 -39.464700 -24.328900 0.000322 -0.000009 -8.722960 -1.619570 -79.558500 -22.291500 -0.000108 -0.000004 4.830790 5.560160 -9.194750 -2.192480 -6.469440 -0.000000 176.442000 -4.959490 -37.492500 39.081100 -0.000007 -0.000012 0.015271 -0.019173 38.532400 40.985400 -0.000006 -0.000013 2.311430 0.940002 -66.756800 11.754300 -0.000000 0.000003 -0.004625 -0.057799 -18.928300 -2.192510 6.469440 -0.000001 170.552000 14.319100 -176.290000 -39.081100 -0.002282 -0.040193 0.102987 -0.204870 25.944700 -40.985400 0.000008 0.000006 1.358420 8.819880 -34.061800 -11.754300 -0.000006 -0.000006 -0.082399 -0.398601 -33.132100
0.000000 0.000000 0.000000 0.000000 0.000000 -0.000000 -2.102120 94.079200 384.422000 -87.894900 10.521600 172.154000 15.735700 0.000005 -0.000001 118.579000 79.775900 -119.669000 8.984550 -0.406207 -0.000000 10.394200 9.691880 -3.067740 16.377300 -0.000001 -0.000001 7.575230 -0.916777 -0.144202 6.456720 -0.000001 -0.000000 -2.730560 -6.539090 5.484730 12.994200 -0.242716 4.980390 -85.801200 -8.038940 -62.302000 5.348090 -0.000007 -0.000001 -70.071800 20.327200 18.130800 24.328600 0.000019 0.000005 -1.355540 -0.851448 -57.879600 22.291600 -0.000001 0.000005 0.838266 5.642040 -14.298400 12.994500 -0.242716 -4.980390 90.600800 -1.732010 -70.867200 -5.348130 -0.000001 -0.000004 -47.309000 23.763800 -36.651000 -24.328900 0.000322 -0.000009 -8.611480 -1.957690 -77.286000 -22.291500 -0.000108 -0.000004 5.341100 5.568830 -9.626550 -2.192480 -6.469440 -0.000000 179.642000 -7.177730 -31.006400 39.081100 -0.000007 -0.000012 -0.002836 0.007015 22.012900 40.985400 -0.000006 -0.000013 0.383179 2.267400 -69.104600 11.754300 -0.000000 0.000003 -0.005264 -0.064005 -19.181200 -2.192510 6.469440 -0.000001 172.129000 11.676800 -172.648000 -39.081100 -0.002282 -0.040193 0.119067 -0.229166 26.799800 -40.985400 0.000008 0.000006 -1.997020 5.392500 -28.495800 -11.754300 -0.000006 -0.000006 -0.025156 -0.194337 -24.524100
